<svg width="16" height="18" viewBox="0 0 16 18" fill="none" xmlns="http://www.w3.org/2000/svg">
<path d="M13.5326 8.53073L8.53255 13.5307C8.46287 13.6007 8.38008 13.6561 8.28892 13.694C8.19775 13.7318 8.10001 13.7513 8.0013 13.7513C7.90259 13.7513 7.80485 13.7318 7.71369 13.694C7.62252 13.6561 7.53973 13.6007 7.47005 13.5307L2.47005 8.53073C2.32915 8.38984 2.25 8.19874 2.25 7.99948C2.25 7.80023 2.32915 7.60913 2.47005 7.46823C2.61095 7.32734 2.80204 7.24818 3.0013 7.24818C3.20056 7.24818 3.39165 7.32734 3.53255 7.46823L8.00193 11.9376L12.4713 7.46761C12.6122 7.32671 12.8033 7.24756 13.0026 7.24756C13.2018 7.24756 13.3929 7.32671 13.5338 7.46761C13.6747 7.60851 13.7539 7.7996 13.7539 7.99886C13.7539 8.19812 13.6747 8.38921 13.5338 8.53011L13.5326 8.53073Z" fill="#1A2042"/>
</svg>
